<mxfile host="app.diagrams.net" modified="2020-09-01T22:06:05.279Z" agent="5.0 (Windows NT 10.0; Win64; x64) AppleWebKit/537.36 (KHTML, like Gecko) Chrome/84.0.4147.135 Safari/537.36" etag="A9u2OKsWqYMaR-qFI8lt" version="13.6.6" type="github">
  <diagram id="C5RBs43oDa-KdzZeNtuy" name="Page-1">
    <mxGraphModel dx="1422" dy="794" grid="1" gridSize="10" guides="1" tooltips="1" connect="1" arrows="1" fold="1" page="1" pageScale="1" pageWidth="1169" pageHeight="827" background="#BFBFBF" math="0" shadow="0">
      <root>
        <mxCell id="WIyWlLk6GJQsqaUBKTNV-0" />
        <mxCell id="WIyWlLk6GJQsqaUBKTNV-1" parent="WIyWlLk6GJQsqaUBKTNV-0" />
        <mxCell id="4k1MC2vJnLODoSujxGtt-4" style="edgeStyle=orthogonalEdgeStyle;rounded=0;orthogonalLoop=1;jettySize=auto;html=1;exitX=1;exitY=0.75;exitDx=0;exitDy=0;" edge="1" parent="WIyWlLk6GJQsqaUBKTNV-1" source="4k1MC2vJnLODoSujxGtt-0" target="4k1MC2vJnLODoSujxGtt-9">
          <mxGeometry relative="1" as="geometry">
            <mxPoint x="210" y="430" as="targetPoint" />
            <Array as="points">
              <mxPoint x="210" y="375" />
              <mxPoint x="210" y="430" />
            </Array>
          </mxGeometry>
        </mxCell>
        <mxCell id="4k1MC2vJnLODoSujxGtt-5" style="edgeStyle=orthogonalEdgeStyle;rounded=0;orthogonalLoop=1;jettySize=auto;html=1;exitX=1;exitY=0.25;exitDx=0;exitDy=0;" edge="1" parent="WIyWlLk6GJQsqaUBKTNV-1" source="4k1MC2vJnLODoSujxGtt-0" target="4k1MC2vJnLODoSujxGtt-8">
          <mxGeometry relative="1" as="geometry">
            <mxPoint x="210" y="290" as="targetPoint" />
          </mxGeometry>
        </mxCell>
        <mxCell id="4k1MC2vJnLODoSujxGtt-0" value="Alta de Operativo" style="rounded=0;whiteSpace=wrap;html=1;" vertex="1" parent="WIyWlLk6GJQsqaUBKTNV-1">
          <mxGeometry x="30" y="330" width="120" height="60" as="geometry" />
        </mxCell>
        <mxCell id="4k1MC2vJnLODoSujxGtt-11" value="" style="edgeStyle=orthogonalEdgeStyle;rounded=0;orthogonalLoop=1;jettySize=auto;html=1;" edge="1" parent="WIyWlLk6GJQsqaUBKTNV-1" source="4k1MC2vJnLODoSujxGtt-8" target="4k1MC2vJnLODoSujxGtt-10">
          <mxGeometry relative="1" as="geometry" />
        </mxCell>
        <mxCell id="4k1MC2vJnLODoSujxGtt-8" value="Apoyo" style="rounded=1;whiteSpace=wrap;html=1;" vertex="1" parent="WIyWlLk6GJQsqaUBKTNV-1">
          <mxGeometry x="150" y="240" width="120" height="60" as="geometry" />
        </mxCell>
        <mxCell id="4k1MC2vJnLODoSujxGtt-17" value="" style="edgeStyle=orthogonalEdgeStyle;rounded=0;orthogonalLoop=1;jettySize=auto;html=1;" edge="1" parent="WIyWlLk6GJQsqaUBKTNV-1" source="4k1MC2vJnLODoSujxGtt-9" target="4k1MC2vJnLODoSujxGtt-16">
          <mxGeometry relative="1" as="geometry" />
        </mxCell>
        <mxCell id="4k1MC2vJnLODoSujxGtt-9" value="Emergencia" style="rounded=1;whiteSpace=wrap;html=1;" vertex="1" parent="WIyWlLk6GJQsqaUBKTNV-1">
          <mxGeometry x="150" y="414" width="120" height="60" as="geometry" />
        </mxCell>
        <mxCell id="4k1MC2vJnLODoSujxGtt-20" value="" style="edgeStyle=orthogonalEdgeStyle;rounded=0;orthogonalLoop=1;jettySize=auto;html=1;" edge="1" parent="WIyWlLk6GJQsqaUBKTNV-1" source="4k1MC2vJnLODoSujxGtt-10" target="4k1MC2vJnLODoSujxGtt-19">
          <mxGeometry relative="1" as="geometry" />
        </mxCell>
        <mxCell id="4k1MC2vJnLODoSujxGtt-10" value="Documentación requerida:&lt;br&gt;-Solicitud de Organismo.&lt;br&gt;-Diagnostico y dictamen.&lt;br&gt;-Solicitud dirigida al Gerente.&lt;br&gt;-Autorización del Gerente.&lt;br&gt;-Convenio Firmado." style="whiteSpace=wrap;html=1;rounded=1;" vertex="1" parent="WIyWlLk6GJQsqaUBKTNV-1">
          <mxGeometry x="350" y="220" width="170" height="100" as="geometry" />
        </mxCell>
        <mxCell id="4k1MC2vJnLODoSujxGtt-16" value="Ingresar:&lt;br&gt;-Estado&lt;br&gt;-Municipio(s)&lt;br&gt;-Localidad(es)&lt;br&gt;-Descripción de la emergencia" style="whiteSpace=wrap;html=1;rounded=1;" vertex="1" parent="WIyWlLk6GJQsqaUBKTNV-1">
          <mxGeometry x="350" y="397" width="170" height="94" as="geometry" />
        </mxCell>
        <mxCell id="4k1MC2vJnLODoSujxGtt-19" value="" style="shape=trapezoid;perimeter=trapezoidPerimeter;whiteSpace=wrap;html=1;fixedSize=1;rounded=1;" vertex="1" parent="WIyWlLk6GJQsqaUBKTNV-1">
          <mxGeometry x="625" y="240" width="120" height="60" as="geometry" />
        </mxCell>
      </root>
    </mxGraphModel>
  </diagram>
</mxfile>
